# Wavefront OBJ exported by MilkShape 3D

mtllib SH3D_Sparta_Roof1.mtl

v -200.000000 -0.000000 200.000000
v -200.000000 90.000000 25.000000
v 200.000000 90.000000 25.000000
v 200.000000 -0.000000 200.000000
v -200.000000 90.000000 0.000000
v 200.000000 90.000000 0.000000
v 200.000000 5.000000 200.000000
v -200.000000 5.000000 200.000000
v -200.000000 -0.000000 200.000000
v -200.000000 90.000000 25.000000
v 200.000000 90.000000 25.000000
v 200.000000 -0.000000 200.000000
v -200.000000 -0.000000 0.000000
v -200.000000 90.000000 0.000000
v 200.000000 90.000000 0.000000
v 200.000000 -0.000000 0.000000
v 200.000000 5.000000 200.000000
v -200.000000 5.000000 200.000000
v -200.000000 -0.000000 200.000000
v 200.000000 -0.000000 200.000000
v -200.000000 -0.000000 0.000000
v 200.000000 -0.000000 0.000000
# 22 vertices

vt 0.001953 0.899576
vt 0.001953 0.030222
vt 2.000000 0.030222
vt 2.000000 0.899576
vt 2.000000 1.000000
vt 0.000000 1.000000
vt 0.001953 0.000000
vt 2.000000 0.000000
vt 1.531855 0.770321
vt 1.071807 1.000239
vt 0.997205 1.000239
vt 0.997205 0.753485
vt 1.531855 0.753485
vt 0.002506 1.000239
vt 0.002506 0.753485
vt -0.532145 0.770321
vt -0.532145 0.753485
vt -0.072096 1.000239
vt 0.500000 0.000000
vt 0.000000 0.000000
vt 0.500000 1.000000
# 21 texture coordinates

vn 0.000000 0.899508 0.436904
vn 0.000000 1.000000 0.000000
vn 0.000000 0.000000 1.000000
vn -1.000000 0.000000 0.000000
vn 0.000000 0.000000 -1.000000
vn 1.000000 0.000000 0.000000
vn 0.000000 -1.000000 0.000000
# 7 normals

g Base_TileRoof0
usemtl Base_TileRoof
s 1
f 2/1/1 8/2/1 7/3/1
f 2/1/1 7/3/1 3/4/1
f 3/4/2 6/5/2 5/6/2
f 3/4/2 5/6/2 2/1/2
f 1/7/3 4/8/3 7/3/3
f 1/7/3 7/3/3 8/2/3
# 6 triangles in group

g Base_RoofTrim0
usemtl Base_RoofTrim
s 2
f 18/9/4 10/10/4 14/11/4
f 18/9/4 14/11/4 13/12/4
f 18/9/4 13/12/4 9/13/4
f 14/11/5 15/14/5 16/15/5
f 14/11/5 16/15/5 13/12/5
f 17/16/6 12/17/6 16/15/6
f 17/16/6 16/15/6 15/14/6
f 17/16/6 15/14/6 11/18/6
# 8 triangles in group

g Base_Ceiling0
usemtl Base_Ceiling
s 3
f 19/19/7 21/20/7 22/6/7
f 19/19/7 22/6/7 20/21/7
# 2 triangles in group

# 16 triangles total

