# Wavefront OBJ exported by MilkShape 3D

mtllib SH3D_Sparta_FloorCeiling1BR.mtl

v -2.000000 0.500000 -2.000000
v 0.000000 0.500000 0.000000
v 0.000000 0.500000 -2.000000
v -2.000000 0.500000 0.000000
v 0.000000 0.000000 -2.000000
v -2.000000 0.000000 0.000000
v -2.000000 0.000000 -2.000000
v 0.000000 0.000000 0.000000
v 0.000000 0.500000 -2.000000
v 0.000000 0.000000 0.000000
v 0.000000 0.000000 -2.000000
v 0.000000 0.500000 0.000000
v -2.000000 0.000000 -2.000000
v -2.000000 0.500000 0.000000
v -2.000000 0.500000 -2.000000
v -2.000000 0.000000 0.000000
v 0.000000 0.500000 0.000000
v -2.000000 0.000000 0.000000
v 0.000000 0.000000 0.000000
v -2.000000 0.500000 0.000000
v 0.000000 0.000000 -2.000000
v 0.000000 0.500000 -2.000000
# 22 vertices

vt 0.000000 1.000326
vt 0.500326 0.500000
vt 0.500326 1.000326
vt 0.000000 0.500000
vt 1.000000 0.500000
vt 1.000000 1.000000
vt 0.500066 0.000000
vt 1.000000 0.000000
vt 0.498764 0.000000
vt 0.498764 1.000000
vt 0.000000 0.000000
# 11 texture coordinates

vn 0.000000 1.000000 0.000000
vn 0.000000 -1.000000 0.000000
vn 1.000000 0.000000 0.000000
vn -0.894427 0.000000 -0.447214
vn -1.000000 0.000000 0.000000
vn -0.447214 0.000000 -0.894427
vn 0.000000 0.000000 1.000000
vn 0.000000 0.000000 -1.000000
# 8 normals

g SH3D_Floor0
usemtl Base_Floor
s 1
f 1/1/1 2/2/1 3/3/1
f 4/4/1 2/2/1 1/1/1
# 2 triangles in group

g SH3D_Ceiling0
usemtl Base_Ceiling
f 5/3/2 6/5/2 7/6/2
f 8/2/2 6/5/2 5/3/2
# 2 triangles in group

g SH3D_FloorTrim0
usemtl Base_FloorTrim
f 9/6/3 10/7/3 11/8/3
f 12/3/3 10/7/3 9/6/3
f 13/9/4 14/6/5 15/10/6
f 16/8/5 14/6/5 13/9/4
f 17/3/7 18/11/7 19/7/7
f 20/1/7 18/11/7 17/3/7
f 21/11/8 15/3/6 22/1/8
f 13/7/4 15/3/6 21/11/8
# 8 triangles in group

# 12 triangles total

