# Wavefront OBJ exported by MilkShape 3D

mtllib SH3D_Sparta_FloorCeiling2L.mtl

v 0.000000 0.500000 -4.000909
v 2.000000 0.500000 -0.000909
v 2.000000 0.500000 -4.000909
v 0.000000 0.500000 -0.000909
v 2.000000 0.000000 -4.000909
v 0.000000 0.000000 -0.000909
v 0.000000 0.000000 -4.000909
v 2.000000 0.000000 -0.000909
v 0.000000 0.500000 -4.000909
v 2.000000 0.500000 -0.000909
v 2.000000 0.500000 -4.000909
v 0.000000 0.500000 -0.000909
v 2.000000 0.000000 -4.000909
v 0.000000 0.000000 -0.000909
v 0.000000 0.000000 -4.000909
v 2.000000 0.000000 -0.000909
# 16 vertices

vt 0.500488 1.000000
vt 1.000000 0.000000
vt 1.000000 1.000000
vt 0.500488 0.000000
vt 0.000000 1.000000
vt 0.000000 0.000000
# 6 texture coordinates

vn 0.000000 1.000000 0.000000
vn 0.000000 -1.000000 0.000000
vn 1.000000 0.000000 0.000000
vn -1.000000 0.000000 0.000000
vn 0.000000 0.000000 1.000000
vn 0.000000 0.000000 -1.000000
# 6 normals

g SH3D_Floor0
usemtl Base_Floor
s 1
f 1/1/1 2/2/1 3/3/1
f 4/4/1 2/2/1 1/1/1
# 2 triangles in group

g SH3D_Ceiling0
usemtl Base_Ceiling
f 5/5/2 6/4/2 7/1/2
f 8/6/2 6/4/2 5/5/2
# 2 triangles in group

g SH3D_FloorTrim0
usemtl Base_FloorTrim
f 11/3/3 16/6/3 13/2/3
f 10/5/3 16/6/3 11/3/3
f 15/6/4 12/3/4 9/5/4
f 14/2/4 12/3/4 15/6/4
f 10/3/5 14/4/5 16/2/5
f 12/1/5 14/4/5 10/3/5
f 13/6/6 9/1/6 11/5/6
f 15/4/6 9/1/6 13/6/6
# 8 triangles in group

# 12 triangles total

