# Wavefront OBJ exported by MilkShape 3D

mtllib SH3D_Sparta_Roof3.mtl

v 1.000000 0.900000 0.000000
v 0.750000 0.900000 0.000000
v 0.750000 0.900000 0.250000
v -1.000000 0.050000 2.000000
v -1.000000 0.050000 0.000000
v -1.000000 0.000000 2.000000
v -1.000000 0.000000 0.000000
v 1.000000 0.900000 0.000000
v 0.750000 0.900000 0.250000
v 1.000000 0.900000 0.250000
v 1.000000 0.050000 2.000000
v -1.000000 0.050000 2.000000
v 1.000000 0.000000 2.000000
v -1.000000 0.000000 2.000000
v 1.000000 0.900000 0.000000
v 1.000000 0.000000 0.000000
v 0.750000 0.900000 0.000000
v -1.000000 0.000000 0.000000
v -1.000000 0.050000 0.000000
v 1.000000 0.050000 2.000000
v 1.000000 0.000000 2.000000
v 1.000000 0.900000 0.250000
v 1.000000 0.000000 0.000000
v 1.000000 0.900000 0.000000
v -1.000000 0.000000 2.000000
v -1.000000 0.000000 0.000000
v 1.000000 0.000000 0.000000
v 1.000000 0.000000 2.000000
v 1.000000 0.000000 0.000000
# 29 vertices

vt 0.001116 1.001331
vt 0.001116 0.902367
vt 0.121048 0.902367
vt 0.998878 0.033012
vt 0.001116 0.033012
vt 0.989634 -0.000468
vt 0.001116 -0.000468
vt 0.005140 1.001331
vt 0.128262 0.902367
vt 0.005140 0.902367
vt 0.005140 0.033012
vt 1.001824 0.033012
vt 0.005140 -0.000468
vt 1.004478 -0.000468
vt 0.996941 1.000239
vt 0.996941 0.749579
vt 0.923688 1.000239
vt 0.498006 0.749579
vt 0.498006 0.766415
vt 0.499926 0.766415
vt 0.499926 0.749579
vt 0.926831 1.000239
vt 1.000282 0.749579
vt 1.000282 1.000239
vt 0.993834 0.501257
vt 0.993834 1.001257
vt 0.493834 1.001257
vt 0.995050 1.001257
vt 0.495050 1.001257
# 29 texture coordinates

vn 0.000000 1.000000 0.000000
vn -0.224156 0.974553 0.000000
vn -0.298000 0.954566 0.000000
vn -0.938130 0.346282 0.000000
vn -0.721356 0.692564 0.000000
vn -1.000000 0.000000 0.000000
vn 0.000000 0.974553 0.224156
vn 0.000000 0.954566 0.298000
vn 0.000000 0.346282 0.938130
vn 0.000000 0.692564 0.721356
vn 0.000000 0.000000 1.000000
vn 0.000000 0.000000 -1.000000
vn 1.000000 0.000000 0.000000
vn 0.000000 -1.000000 0.000000
# 14 normals

g Base_TileRoof
usemtl Base_TileRoof
s 1
f 1/1/1 2/2/2 3/3/3
f 4/4/4 3/3/3 5/5/5
f 3/3/3 2/2/2 5/5/5
f 6/6/6 4/4/4 7/7/6
f 4/4/4 5/5/5 7/7/6
f 8/8/1 9/9/7 10/10/8
f 11/11/9 10/10/8 12/12/10
f 10/10/8 9/9/7 12/12/10
f 13/13/11 11/11/9 14/14/11
f 11/11/9 12/12/10 14/14/11
# 10 triangles in group

g Base_RoofTrim
usemtl Base_RoofTrim
s 2
f 15/15/12 16/16/12 17/17/12
f 16/16/12 18/18/12 17/17/12
f 17/17/12 18/18/12 19/19/12
f 20/20/13 21/21/13 22/22/13
f 21/21/13 23/23/13 22/22/13
f 22/22/13 23/23/13 24/24/13
# 6 triangles in group

g Base_Ceiling
usemtl Base_Ceiling
s 3
f 25/25/14 26/26/14 27/27/14
f 28/28/14 25/25/14 29/29/14
# 2 triangles in group

# 18 triangles total

