# Wavefront OBJ exported by MilkShape 3D

mtllib SH3D_Sparta_FloorCeiling.mtl

v -2.000000 0.500000 -4.000000
v 2.000000 0.500000 0.000000
v 2.000000 0.500000 -4.000000
v -2.000000 0.500000 0.000000
v 2.000000 0.000000 -4.000000
v -2.000000 0.000000 0.000000
v -2.000000 0.000000 -4.000000
v 2.000000 0.000000 0.000000
v -2.000000 0.000000 -4.000000
v -2.000000 0.500000 0.000000
v -2.000000 0.500000 -4.000000
v -2.000000 0.000000 0.000000
v 2.000000 0.000000 -4.000000
v -2.000000 0.500000 -4.000000
v 2.000000 0.500000 -4.000000
v -2.000000 0.000000 -4.000000
v 2.000000 0.500000 -4.000000
v 2.000000 0.000000 0.000000
v 2.000000 0.000000 -4.000000
v 2.000000 0.500000 0.000000
v 2.000000 0.500000 0.000000
v -2.000000 0.000000 0.000000
v 2.000000 0.000000 0.000000
v -2.000000 0.500000 0.000000
# 24 vertices

vt 0.000000 1.000000
vt 1.000000 0.000000
vt 1.000000 1.000000
vt 0.000000 0.000000
# 4 texture coordinates

vn 0.000000 1.000000 0.000000
vn 0.000000 -1.000000 0.000000
vn -1.000000 0.000000 0.000000
vn 0.000000 0.000000 -1.000000
vn 1.000000 0.000000 0.000000
vn 0.000000 0.000000 1.000000
# 6 normals

g SH3D_Floor0
usemtl Base_Floor
s 1
f 1/1/1 2/2/1 3/3/1
f 4/4/1 2/2/1 1/1/1
# 2 triangles in group

g SH3D_Ceiling0
usemtl Base_Ceiling
f 5/1/2 6/2/2 7/3/2
f 8/4/2 6/2/2 5/1/2
# 2 triangles in group

g SH3D_Trim0
usemtl Base_FloorTrim
f 9/4/3 10/3/3 11/1/3
f 12/2/3 10/3/3 9/4/3
f 13/4/4 14/3/4 15/1/4
f 16/2/4 14/3/4 13/4/4
f 17/3/5 18/4/5 19/2/5
f 20/1/5 18/4/5 17/3/5
f 21/3/6 22/4/6 23/2/6
f 24/1/6 22/4/6 21/3/6
# 8 triangles in group

# 12 triangles total

