# Wavefront OBJ exported by MilkShape 3D

mtllib SH3D_Sparta_Roof1.mtl

v -2.000000 0.900000 0.250000
v -2.000000 0.050000 2.000000
v 2.000000 0.050000 2.000000
v 2.000000 0.900000 0.250000
v 2.000000 0.900000 0.000000
v -2.000000 0.900000 0.000000
v -2.000000 0.000000 2.000000
v 2.000000 0.000000 2.000000
v -2.000000 0.050000 2.000000
v -2.000000 0.900000 0.250000
v -2.000000 0.900000 0.000000
v -2.000000 0.000000 0.000000
v -2.000000 0.000000 2.000000
v -2.000000 0.900000 0.000000
v 2.000000 0.900000 0.000000
v 2.000000 0.000000 0.000000
v -2.000000 0.000000 0.000000
v 2.000000 0.050000 2.000000
v 2.000000 0.000000 2.000000
v 2.000000 0.000000 0.000000
v 2.000000 0.900000 0.000000
v 2.000000 0.900000 0.250000
v -2.000000 0.000000 2.000000
v -2.000000 0.000000 0.000000
v 2.000000 0.000000 0.000000
v 2.000000 0.000000 2.000000
# 26 vertices

vt 0.001953 0.899576
vt 0.001953 0.030222
vt 2.000000 0.030222
vt 2.000000 0.899576
vt 2.000000 1.000000
vt 0.000000 1.000000
vt 0.001953 0.000000
vt 2.000000 0.000000
vt 0.499628 0.765764
vt 0.062692 1.000000
vt 0.000000 0.748928
vt 0.499628 0.748928
vt 1.000000 1.000651
vt 1.000000 0.748184
vt 1.000000 0.749579
vt 0.937019 1.000239
vt 0.500000 0.000000
vt 0.000000 0.000000
vt 0.500000 1.000000
# 19 texture coordinates

vn 0.000000 0.954566 0.298000
vn 0.000000 0.530611 0.847615
vn 0.000000 0.988837 0.149000
vn 0.000000 1.000000 0.000000
vn 0.000000 0.000000 1.000000
vn -1.000000 0.000000 0.000000
vn 0.000000 0.000000 -1.000000
vn 1.000000 0.000000 0.000000
vn 0.000000 -1.000000 0.000000
# 9 normals

g Base_TileRoof0
usemtl Base_TileRoof
s 1
f 1/1/1 2/2/2 3/3/2
f 1/1/1 3/3/2 4/4/3
f 4/4/3 5/5/4 6/6/4
f 4/4/3 6/6/4 1/1/1
f 7/7/5 8/8/5 3/3/2
f 7/7/5 3/3/2 2/2/2
# 6 triangles in group

g Base_RoofTrim0
usemtl Base_RoofTrim
s 2
f 9/9/6 10/10/6 11/6/6
f 9/9/6 11/6/6 12/11/6
f 9/9/6 12/11/6 13/12/6
f 14/13/7 15/6/7 16/11/7
f 14/13/7 16/11/7 17/14/7
f 18/9/8 19/12/8 20/15/8
f 18/9/8 20/15/8 21/13/8
f 18/9/8 21/13/8 22/16/8
# 8 triangles in group

g Base_Eave0
usemtl Base_Eave
s 3
f 23/17/9 24/18/9 25/6/9
f 23/17/9 25/6/9 26/19/9
# 2 triangles in group

# 16 triangles total

