# Wavefront OBJ exported by MilkShape 3D

mtllib SH3D_Sparta_FloorCeiling2B.mtl

v 2.000909 0.500000 -2.000000
v -1.999091 0.500000 0.000000
v 2.000909 0.500000 0.000000
v -1.999091 0.500000 -2.000000
v 2.000909 0.000000 0.000000
v -1.999091 0.000000 -2.000000
v 2.000909 0.000000 -2.000000
v -1.999091 0.000000 0.000000
v 2.000909 0.500000 0.000000
v -1.999091 0.000000 0.000000
v 2.000909 0.000000 0.000000
v -1.999091 0.500000 0.000000
v 2.000909 0.000000 -2.000000
v -1.999091 0.500000 -2.000000
v 2.000909 0.500000 -2.000000
v -1.999091 0.000000 -2.000000
v -1.999091 0.500000 0.000000
v -1.999091 0.000000 -2.000000
v -1.999091 0.000000 0.000000
v -1.999091 0.500000 -2.000000
v 2.000909 0.000000 0.000000
v 2.000909 0.500000 -2.000000
v 2.000909 0.500000 0.000000
v 2.000909 0.000000 -2.000000
# 24 vertices

vt 1.000000 1.000000
vt 0.000000 0.500000
vt 1.000000 0.500000
vt 0.000000 1.000000
vt 0.000000 0.000000
vt 1.000000 0.000000
vt 0.500070 1.000000
vt 0.500070 0.000000
# 8 texture coordinates

vn 0.000000 1.000000 0.000000
vn 0.000000 -1.000000 0.000000
vn -0.000000 0.000000 1.000000
vn 0.000000 0.000000 -1.000000
vn -1.000000 0.000000 -0.000000
vn 1.000000 0.000000 0.000000
# 6 normals

g SH3D_Floor0
usemtl Base_Floor
s 1
f 1/1/1 2/2/1 3/3/1
f 4/4/1 2/2/1 1/1/1
# 2 triangles in group

g SH3D_Ceiling0
usemtl Base_Ceiling
f 5/2/2 6/1/2 7/4/2
f 8/3/2 6/1/2 5/2/2
# 2 triangles in group

g SH3D_FloorTrim0
usemtl Base_FloorTrim
f 9/1/3 10/5/3 11/6/3
f 12/4/3 10/5/3 9/1/3
f 13/5/4 14/1/4 15/4/4
f 16/6/4 14/1/4 13/5/4
f 17/7/5 18/5/5 19/8/5
f 20/4/5 18/5/5 17/7/5
f 21/8/6 22/1/6 23/7/6
f 24/6/6 22/1/6 21/8/6
# 8 triangles in group

# 12 triangles total

