# Wavefront OBJ exported by MilkShape 3D

mtllib SH3D_Sparta_WallPlain.mtl

v 2.000000 0.000000 0.000000
v 2.000000 4.000000 0.000000
v 2.000000 4.000000 0.300000
v 2.000000 0.000000 0.300000
v -2.000000 4.000000 0.000000
v -2.000000 4.000000 0.300000
v -2.000000 0.000000 0.300000
v -2.000000 0.000000 0.000000
v 2.000000 4.000000 0.300000
v 2.000000 4.000000 0.000000
v -2.000000 4.000000 0.000000
v -2.000000 4.000000 0.300000
v 2.000000 0.000000 0.300000
v 2.000000 4.000000 0.300000
v -2.000000 4.000000 0.300000
v -2.000000 0.000000 0.300000
v -2.000000 0.000000 0.300000
v -2.000000 0.000000 0.000000
v 2.000000 0.000000 0.000000
v 2.000000 0.000000 0.300000
v -2.000000 4.000000 0.000000
v -2.000000 4.000000 0.300000
v -2.000000 0.000000 0.300000
v -2.000000 0.000000 0.000000
v -2.000000 4.000000 0.300000
v -2.000000 4.000000 0.000000
v -2.000000 0.000000 0.000000
v -2.000000 0.000000 0.300000
v 2.000000 0.000000 0.000000
v 2.000000 4.000000 0.000000
v 2.000000 4.000000 0.300000
v 2.000000 0.000000 0.300000
v 2.000000 0.000000 0.000000
v 2.000000 4.000000 0.000000
v -2.000000 4.000000 0.000000
v -2.000000 0.000000 0.000000
v 2.000000 0.000000 0.000000
v 2.000000 4.000000 0.000000
v 2.000000 4.000000 0.300000
v 2.000000 0.000000 0.300000
v -2.000000 0.000000 0.000000
v -2.000000 4.000000 0.000000
v 2.000000 4.000000 0.000000
v 2.000000 0.000000 0.000000
# 44 vertices

vt 1.000000 0.000490
vt 1.000000 0.075437
vt 0.000000 0.075437
vt 0.000000 0.000490
vt 1.000000 1.000000
vt 0.000000 1.000000
vt 2.000000 0.100618
vt 2.000000 0.175584
vt 1.000000 0.175584
vt 1.000000 0.100618
vt 0.075130 1.000000
vt 0.075130 0.000000
vt 1.001107 0.000000
vt 1.001107 1.000000
vt 0.926107 1.000000
vt 0.926107 0.000000
# 16 texture coordinates

vn 0.000000 1.000000 0.000000
vn 0.000000 -0.000000 1.000000
vn 0.000000 -1.000000 0.000000
vn -1.000000 0.000000 0.000000
vn 1.000000 0.000000 0.000000
vn 0.000000 0.000000 -1.000000
# 6 normals

g SH3D_ExtWall0
usemtl SH3D_ExtWall
s 1
f 3/1/1 2/2/1 5/3/1
f 3/1/1 5/3/1 6/4/1
f 4/1/2 3/5/2 6/6/2
f 4/1/2 6/6/2 7/4/2
f 7/7/3 8/8/3 1/9/3
f 7/7/3 1/9/3 4/10/3
f 9/1/1 10/2/1 11/3/1
f 9/1/1 11/3/1 12/4/1
f 13/1/2 14/5/2 15/6/2
f 13/1/2 15/6/2 16/4/2
f 17/7/3 18/8/3 19/9/3
f 17/7/3 19/9/3 20/10/3
# 12 triangles in group

g SH3D_IntWall0
usemtl SH3D_IntWall
f 22/11/4 21/6/4 24/4/4
f 22/11/4 24/4/4 23/12/4
f 25/11/4 26/6/4 27/4/4
f 25/11/4 27/4/4 28/12/4
f 29/13/5 30/14/5 31/15/5
f 29/13/5 31/15/5 32/16/5
f 37/13/5 38/14/5 39/15/5
f 37/13/5 39/15/5 40/16/5
f 36/1/6 35/5/6 34/6/6
f 36/1/6 34/6/6 33/4/6
f 41/1/6 42/5/6 43/6/6
f 41/1/6 43/6/6 44/4/6
# 12 triangles in group

# 24 triangles total

