# Wavefront OBJ exported by MilkShape 3D

mtllib SH3D_Sparta_WallAlcove2.mtl

v -0.000000 0.000000 0.000000
v -0.000000 4.000000 0.000000
v -0.000000 4.000000 0.300000
v -0.000000 0.000000 0.300000
v -0.000000 4.000000 0.300000
v -0.000000 4.000000 0.000000
v -3.700000 4.000000 0.000000
v -3.700000 4.000000 0.300000
v -0.000000 0.000000 0.300000
v -0.000000 4.000000 0.300000
v -3.700000 4.000000 0.300000
v -3.700000 0.000000 0.300000
v -3.700000 0.000000 0.300000
v -3.700000 0.000000 0.000000
v -0.000000 0.000000 0.000000
v -0.000000 0.000000 0.300000
v -3.700000 4.000000 0.300000
v -3.700000 4.000000 0.000000
v -3.700000 0.000000 0.000000
v -3.700000 0.000000 0.300000
v 3.700000 0.000000 0.000000
v 3.700000 4.000000 0.000000
v 3.700000 4.000000 0.300000
v 3.700000 0.000000 0.300000
v 3.700000 4.000000 0.300000
v 3.700000 4.000000 0.000000
v 0.000000 4.000000 0.000000
v 0.000000 4.000000 0.300000
v 3.700000 0.000000 0.300000
v 3.700000 4.000000 0.300000
v 0.000000 4.000000 0.300000
v 0.000000 0.000000 0.300000
v 0.000000 0.000000 0.300000
v 0.000000 0.000000 0.000000
v 3.700000 0.000000 0.000000
v 3.700000 0.000000 0.300000
v 0.000000 4.000000 0.300000
v 0.000000 4.000000 0.000000
v 0.000000 0.000000 0.000000
v 0.000000 0.000000 0.300000
v -3.700000 0.000000 0.000000
v -3.700000 4.000000 0.000000
v -0.000000 4.000000 0.000000
v -0.000000 0.000000 0.000000
v 0.000000 0.000000 0.000000
v 0.000000 4.000000 0.000000
v 3.700000 4.000000 0.000000
v 3.700000 0.000000 0.000000
# 48 vertices

vt 0.075000 0.000000
vt 0.075000 1.000000
vt 0.000000 1.000000
vt 0.000000 0.000000
vt 1.000000 0.000490
vt 1.000000 0.075437
vt 0.000000 0.075437
vt 1.000000 1.000000
vt 0.077718 1.000000
vt 0.077718 0.000000
vt 2.000000 0.100618
vt 2.000000 0.175584
vt 1.000000 0.175584
vt 1.000000 0.100618
vt 0.150000 1.000000
vt 0.150000 0.000000
vt 0.929932 0.000000
vt 0.929932 1.000000
vt 0.926060 0.000000
vt 0.926060 1.000000
# 20 texture coordinates

vn 1.000000 0.000000 0.000000
vn 0.000000 1.000000 0.000000
vn 0.000000 -0.000000 1.000000
vn 0.000000 -1.000000 0.000000
vn -1.000000 0.000000 0.000000
vn 0.000000 0.000000 -1.000000
# 6 normals

g SH3D_Sparta_ExtWall0
usemtl Base_ExtWall_Sparta_dif
s 1
f 1/1/1 2/2/1 3/3/1
f 1/1/1 3/3/1 4/4/1
f 5/5/2 6/6/2 7/7/2
f 5/5/2 7/7/2 8/4/2
f 9/5/3 10/8/3 11/9/3
f 9/5/3 11/9/3 12/10/3
f 13/11/4 14/12/4 15/13/4
f 13/11/4 15/13/4 16/14/4
f 17/15/5 18/2/5 19/1/5
f 17/15/5 19/1/5 20/16/5
f 21/1/1 22/2/1 23/3/1
f 21/1/1 23/3/1 24/4/1
f 25/5/2 26/6/2 27/7/2
f 25/5/2 27/7/2 28/4/2
f 29/17/3 30/18/3 31/3/3
f 29/17/3 31/3/3 32/4/3
f 33/11/4 34/12/4 35/13/4
f 33/11/4 35/13/4 36/14/4
f 37/15/5 38/2/5 39/1/5
f 37/15/5 39/1/5 40/16/5
# 20 triangles in group

g SH3D_Sparta_IntWall0
usemtl Base_IntWall_Sparta_dif
f 41/19/6 42/20/6 43/3/6
f 41/19/6 43/3/6 44/4/6
f 45/5/6 46/8/6 47/2/6
f 45/5/6 47/2/6 48/1/6
# 4 triangles in group

# 24 triangles total

