# Wavefront OBJ exported by MilkShape 3D

mtllib SH3D_Sparta_FloorCeiling.mtl

v -2.000000 0.500000 -2.000000
v 2.000000 0.500000 2.000000
v 2.000000 0.500000 -2.000000
v -2.000000 0.500000 2.000000
v 2.000000 0.000000 -2.000000
v -2.000000 0.000000 2.000000
v -2.000000 0.000000 -2.000000
v 2.000000 0.000000 2.000000
v -2.000000 0.000000 -2.000000
v -2.000000 0.500000 2.000000
v -2.000000 0.500000 -2.000000
v -2.000000 0.000000 2.000000
v 2.000000 0.000000 -2.000000
v -2.000000 0.500000 -2.000000
v 2.000000 0.500000 -2.000000
v -2.000000 0.000000 -2.000000
v 2.000000 0.500000 -2.000000
v 2.000000 0.000000 2.000000
v 2.000000 0.000000 -2.000000
v 2.000000 0.500000 2.000000
v 2.000000 0.500000 2.000000
v -2.000000 0.000000 2.000000
v 2.000000 0.000000 2.000000
v -2.000000 0.500000 2.000000
# 24 vertices

vt 0.000000 1.000000
vt 1.000000 0.000000
vt 1.000000 1.000000
vt 0.000000 0.000000
vt 0.000000 2.000000
vt 2.000000 0.000000
vt 2.000000 2.000000
vt 1.000000 0.198568
vt 0.000000 0.197917
vt 0.001953 0.198893
# 10 texture coordinates

vn 0.000000 1.000000 0.000000
vn 0.000000 -1.000000 0.000000
vn -1.000000 0.000000 0.000000
vn 0.000000 0.000000 -1.000000
vn 1.000000 0.000000 0.000000
vn 0.000000 0.000000 1.000000
# 6 normals

g SH3D_Floor0
usemtl Base_Floor
s 1
f 1/1/1 2/2/1 3/3/1
f 4/4/1 2/2/1 1/1/1
# 2 triangles in group

g SH3D_Ceiling0
usemtl Base_Ceiling
f 5/5/2 6/6/2 7/7/2
f 8/4/2 6/6/2 5/5/2
# 2 triangles in group

g SH3D_Trim0
usemtl Base_Trim
f 9/4/3 10/8/3 11/9/3
f 12/2/3 10/8/3 9/4/3
f 13/4/4 14/8/4 15/9/4
f 16/2/4 14/8/4 13/4/4
f 17/8/5 18/4/5 19/2/5
f 20/9/5 18/4/5 17/8/5
f 21/8/6 22/4/6 23/2/6
f 24/10/6 22/4/6 21/8/6
# 8 triangles in group

# 12 triangles total

