# Wavefront OBJ exported by MilkShape 3D

mtllib SH3D_Sparta_Roof4.mtl

v 1.000000 0.900000 0.000000
v -1.000000 0.900000 0.000000
v -1.000000 0.900000 0.250000
v 0.750000 0.900000 0.250000
v -1.000000 0.050000 2.000000
v 1.000000 0.900000 2.000000
v 0.750000 0.900000 2.000000
v -1.000000 0.050000 2.000000
v -1.000000 0.000000 2.000000
v 1.000000 0.000000 2.000000
v 1.000000 0.900000 2.000000
v 0.750000 0.900000 2.000000
v -1.000000 0.050000 2.000000
v -1.000000 0.900000 0.250000
v -1.000000 0.900000 0.000000
v -1.000000 0.000000 0.000000
v -1.000000 0.000000 2.000000
v 1.000000 0.000000 0.000000
v -1.000000 0.000000 0.000000
v -1.000000 0.900000 0.000000
v 1.000000 0.900000 0.000000
v 1.000000 0.000000 2.000000
v 1.000000 0.000000 0.000000
v 1.000000 0.900000 0.000000
v 1.000000 0.900000 2.000000
v -1.000000 0.000000 2.000000
v -1.000000 0.000000 0.000000
v 1.000000 0.000000 0.000000
v 1.000000 0.000000 0.000000
v 1.000000 0.000000 2.000000
# 30 vertices

vt 1.000000 1.000000
vt 0.000000 1.000000
vt 0.000000 0.906552
vt 0.868304 0.906552
vt -0.001934 0.028826
vt 0.000000 0.765438
vt 0.000000 0.748602
vt 0.499682 0.748602
vt 0.499682 1.000000
vt 0.436949 1.000000
vt 1.000000 0.765113
vt 0.561120 1.000000
vt 1.000000 0.748277
vt 0.507851 0.999698
vt 0.000032 0.466327
# 15 texture coordinates

vn 0.000000 1.000000 0.000000
vn 0.000000 0.988837 0.149000
vn -0.090295 0.991813 0.090295
vn -0.229688 0.945773 0.229688
vn -0.224156 0.974553 0.000000
vn 0.000000 0.000000 1.000000
vn -1.000000 0.000000 0.000000
vn 0.000000 0.000000 -1.000000
vn 1.000000 0.000000 0.000000
vn 0.000000 -1.000000 0.000000
# 10 normals

g Base_TileRoof0
usemtl Base_TileRoof
s 1
f 1/1/1 2/2/1 3/3/2
f 1/1/1 3/3/2 4/4/3
f 4/4/3 3/3/2 5/5/4
f 6/2/1 1/1/1 4/4/3
f 6/2/1 4/4/3 7/3/5
f 7/3/5 4/4/3 5/5/4
# 6 triangles in group

g Base_RoofTrim0
usemtl Base_RoofTrim
s 2
f 8/6/6 9/7/6 10/8/6
f 8/6/6 10/8/6 11/9/6
f 8/6/6 11/9/6 12/10/6
f 13/11/7 14/12/7 15/9/7
f 13/11/7 15/9/7 16/8/7
f 13/11/7 16/8/7 17/13/7
f 18/7/8 19/8/8 20/9/8
f 18/7/8 20/9/8 21/2/8
f 22/8/9 23/13/9 24/1/9
f 22/8/9 24/1/9 25/9/9
# 10 triangles in group

g Base_Ceiling0
usemtl Base_Ceiling
s 3
f 26/14/10 27/2/10 28/15/10
f 26/14/10 29/15/10 30/2/10
# 2 triangles in group

# 18 triangles total

