# Wavefront OBJ exported by MilkShape 3D

mtllib SH3D_Sparta_CornerPost.mtl

v 0.001789 4.000331 0.363839
v 0.001789 0.000340 0.363839
v 0.374194 4.000331 0.363839
v 0.374194 0.000340 0.363839
v 0.374194 4.000331 0.363839
v 0.374194 0.000340 0.363839
v 0.374194 4.000331 0.000958
v 0.374194 0.000340 0.000958
v 0.374194 4.000331 0.000958
v 0.374194 0.000340 0.000958
v 0.001789 4.000331 0.000958
v 0.001789 0.000340 0.000958
v 0.001789 4.000331 0.000958
v 0.001789 0.000340 0.000958
v 0.001789 4.000331 0.363839
v 0.001789 0.000340 0.363839
v 0.001789 4.000331 0.363839
v 0.374194 4.000331 0.363839
v 0.001789 0.000340 0.363839
v 0.374194 0.000340 0.363839
# 20 vertices

vt 0.000000 1.000000
vt 0.000000 0.000000
vt 1.000000 1.000000
vt 1.000000 0.000490
# 4 texture coordinates

vn 0.000000 0.000000 1.000000
vn 1.000000 0.000000 0.000000
vn 0.707107 0.707107 0.000000
vn 0.707107 -0.707107 0.000000
vn 0.000000 0.000000 -1.000000
vn -0.707107 0.707107 0.000000
vn -0.707107 -0.707107 0.000000
vn -1.000000 0.000000 0.000000
vn 0.000000 1.000000 0.000000
vn 0.000000 -1.000000 0.000000
# 10 normals

g SH3D_CornerPost0
usemtl SH3D_CornerPost
s 1
f 1/1/1 2/2/1 3/3/1
f 2/2/1 4/4/1 3/3/1
f 5/1/2 6/2/2 7/3/3
f 6/2/2 8/4/4 7/3/3
f 9/1/5 10/2/5 11/3/5
f 10/2/5 12/4/5 11/3/5
f 13/1/6 14/2/7 15/3/8
f 14/2/7 16/4/8 15/3/8
f 13/1/6 17/2/9 7/3/3
f 17/2/9 18/4/9 7/3/3
f 19/1/10 14/2/7 20/3/10
f 14/2/7 8/4/4 20/3/10
# 12 triangles in group

# 12 triangles total

