# Wavefront OBJ exported by MilkShape 3D

mtllib SH3D_Sparta_FloorCeiling2T.mtl

v 2.000909 0.500000 -2.000000
v -1.999091 0.500000 0.000000
v 2.000909 0.500000 0.000000
v -1.999091 0.500000 -2.000000
v 2.000909 0.000000 0.000000
v -1.999091 0.000000 -2.000000
v 2.000909 0.000000 -2.000000
v -1.999091 0.000000 0.000000
v 2.000909 0.500000 0.000000
v -1.999091 0.000000 0.000000
v 2.000909 0.000000 0.000000
v -1.999091 0.500000 0.000000
v 2.000909 0.000000 -2.000000
v -1.999091 0.500000 -2.000000
v 2.000909 0.500000 -2.000000
v -1.999091 0.000000 -2.000000
v -1.999091 0.500000 0.000000
v -1.999091 0.000000 -2.000000
v -1.999091 0.000000 0.000000
v -1.999091 0.500000 -2.000000
v 2.000909 0.000000 0.000000
v 2.000909 0.500000 -2.000000
v 2.000909 0.500000 0.000000
v 2.000909 0.000000 -2.000000
# 24 vertices

vt 1.000000 0.500325
vt 0.000000 0.000000
vt 1.000000 0.000000
vt 0.000000 0.500326
vt 1.001953 0.500325
vt 1.001953 0.000000
vt 1.000000 1.000000
vt 0.000000 1.000000
vt 0.500000 0.000000
vt 0.500000 1.000000
# 10 texture coordinates

vn 0.000000 1.000000 0.000000
vn 0.000000 -1.000000 0.000000
vn 0.000000 0.000000 1.000000
vn 0.000000 0.000000 -1.000000
vn -1.000000 0.000000 0.000000
vn 1.000000 0.000000 0.000000
# 6 normals

g SH3D_Floor0
usemtl Base_Floor
s 1
f 1/1/1 2/2/1 3/3/1
f 4/4/1 2/2/1 1/1/1
# 2 triangles in group

g SH3D_Ceiling0
usemtl Base_Ceiling
f 5/2/2 6/5/2 7/4/2
f 8/6/2 6/5/2 5/2/2
# 2 triangles in group

g SH3D_Trim0
usemtl Base_FloorTrim
f 9/7/3 10/2/3 11/3/3
f 12/8/3 10/2/3 9/7/3
f 13/2/4 14/7/4 15/8/4
f 16/3/4 14/7/4 13/2/4
f 17/7/5 18/9/5 19/3/5
f 20/10/5 18/9/5 17/7/5
f 21/2/6 22/10/6 23/8/6
f 24/9/6 22/10/6 21/2/6
# 8 triangles in group

# 12 triangles total

