# Wavefront OBJ exported by MilkShape 3D

mtllib SH3D_Sparta_BalcWall8.mtl

v 15.000000 400.000000 400.000000
v 185.000000 400.000000 400.000000
v 15.000000 400.000000 185.000000
v 15.000000 400.000000 15.000000
v 400.000000 400.000000 15.000000
v 400.000000 400.000000 185.000000
v 185.000000 400.000000 185.000000
v 185.000000 400.000000 15.000000
v 15.000000 360.000000 400.000000
v 185.000000 360.000000 400.000000
v 15.000000 360.000000 15.000000
v 400.000000 360.000000 15.000000
v 185.000000 360.000000 185.000000
v 400.000000 360.000000 185.000000
v 15.000000 400.000000 400.000000
v 15.000000 360.000000 400.000000
v 185.000000 360.000000 400.000000
v 185.000000 400.000000 400.000000
v 185.000000 360.000000 185.000000
v 400.000000 360.000000 185.000000
v 400.000000 400.000000 185.000000
v 185.000000 400.000000 185.000000
v -15.000000 400.000000 400.000000
v -15.000000 0.000000 400.000000
v 15.000000 400.000000 400.000000
v 15.000000 0.000000 400.000000
v 15.000000 360.000000 400.000000
v 15.000000 400.000000 185.000000
v -15.000000 400.000000 -15.000000
v -15.000000 0.000000 -15.000000
v 400.000000 0.000000 -15.000000
v 400.000000 400.000000 -15.000000
v 15.000000 400.000000 15.000000
v 15.000000 0.000000 15.000000
v 400.000000 0.000000 15.000000
v 400.000000 400.000000 15.000000
v 15.000000 360.000000 15.000000
v 400.000000 360.000000 15.000000
v 400.000000 360.000000 185.000000
v 400.000000 400.000000 185.000000
v 185.000000 400.000000 15.000000
v -15.000000 400.000000 400.000000
v -15.000000 0.000000 400.000000
v -15.000000 400.000000 -15.000000
v -15.000000 0.000000 -15.000000
v 400.000000 0.000000 -15.000000
v 400.000000 400.000000 -15.000000
# 47 vertices

vt 1.000000 0.500000
vt 1.000000 1.001558
vt 0.441558 1.001558
vt 0.441558 0.500000
vt -0.000000 1.001558
vt 0.000000 0.500000
vt 0.000232 0.999113
vt -0.000000 0.502090
vt 0.497915 0.502090
vt 0.492356 0.999888
vt -0.006829 -0.001795
vt 0.993171 -0.001795
vt 0.993171 0.384090
vt 0.550000 0.387308
vt 1.000000 0.000558
vt 0.000000 0.387308
vt 0.000000 0.000558
vt 0.001288 0.320587
vt 1.001288 0.320587
vt 1.000552 0.473007
vt 0.000552 0.473007
vt 0.004300 0.319497
vt 0.396099 0.319497
vt 0.396099 0.474737
vt 0.004300 0.474737
vt 0.152500 1.000000
vt 0.077500 1.000000
vt 0.152500 0.900000
vt 0.000000 0.900000
vt 0.077500 0.000000
vt 0.002516 0.390456
vt 0.002516 -0.001343
vt 0.153234 -0.001343
vt 0.153234 0.390456
vt 0.932584 0.067416
vt 0.000000 0.067416
vt 0.865169 0.000000
vt 0.072289 0.143796
vt 0.481928 0.143796
vt 1.000000 0.143796
vt 1.000000 0.275744
vt 0.000000 0.275744
vt 1.000000 0.900000
vt 0.981387 -0.001176
vt 0.913972 0.066240
vt 0.048803 0.066240
vt 0.048803 -0.001176
vt 0.000000 0.143691
vt 0.518072 0.143691
vt 0.927711 0.143691
vt 0.152500 0.000000
vt 0.998317 -0.000497
vt 0.998745 0.901141
vt 0.001683 0.901141
vt 0.001255 -0.000497
vt 1.000000 1.000000
# 56 texture coordinates

vn 0.000000 1.000000 0.000000
vn 0.000000 -1.000000 0.000000
vn -0.000000 0.000000 1.000000
vn 1.000000 0.000000 0.000000
vn 0.000000 0.000000 -1.000000
vn -1.000000 0.000000 -0.000000
# 6 normals

g Base_Floor2_Sparta0
usemtl Base_Floor2
s 1
f 6/1/1 5/2/1 8/3/1
f 6/1/1 8/3/1 7/4/1
f 7/4/1 8/3/1 4/5/1
f 4/5/1 3/6/1 7/4/1
f 1/7/1 2/8/1 7/9/1
f 1/7/1 7/9/1 3/10/1
# 6 triangles in group

g Base_Pillar1_Sparta0
usemtl Base_Pillar1
s 2
f 11/11/2 12/12/2 14/13/2
f 11/11/2 14/13/2 13/14/2
f 11/15/2 13/14/2 10/16/2
f 11/15/2 10/16/2 9/17/2
# 4 triangles in group

g Base_StepsRail_Sparta0
usemtl Base_StepsRail
s 3
f 19/18/3 20/19/3 21/20/3
f 19/18/3 21/20/3 22/21/3
f 16/22/3 17/23/3 18/24/3
f 16/22/3 18/24/3 15/25/3
f 19/19/4 22/20/4 18/21/4
f 19/19/4 18/21/4 17/18/4
# 6 triangles in group

g Base_ExtWall_Sparta0
usemtl Base_ExtWall
s 4
f 25/26/3 23/27/3 27/28/3
f 32/27/4 38/29/4 35/17/4
f 32/27/4 35/17/4 31/30/4
f 36/31/4 40/32/4 39/33/4
f 36/31/4 39/33/4 38/34/4
f 30/35/2 31/36/2 35/17/2
f 30/35/2 35/17/2 34/37/2
f 36/7/4 38/29/4 32/27/4
f 33/38/1 41/39/1 36/40/1
f 33/38/1 36/40/1 32/41/1
f 33/38/1 32/41/1 29/42/1
f 34/17/3 35/15/3 38/43/3
f 34/17/3 38/43/3 37/29/3
f 30/44/2 34/45/2 26/46/2
f 30/44/2 26/46/2 24/47/2
f 23/42/1 25/48/1 28/49/1
f 23/42/1 28/49/1 33/50/1
f 23/42/1 33/50/1 29/41/1
f 24/30/3 26/51/3 27/28/3
f 24/30/3 27/28/3 23/27/3
f 34/52/4 37/53/4 27/54/4
f 34/52/4 27/54/4 26/55/4
# 22 triangles in group

g Base_IntWall_Sparta0
usemtl Base_IntWall
s 5
f 44/56/5 47/7/5 46/17/5
f 44/56/5 46/17/5 45/15/5
f 42/56/6 44/7/6 45/17/6
f 42/56/6 45/17/6 43/15/6
# 4 triangles in group

# 42 triangles total

