# Wavefront OBJ exported by MilkShape 3D

mtllib SH3D_Sparta_BalcWall6.mtl

v -100.000000 400.000000 15.000000
v -100.000000 400.000000 185.000000
v 100.000000 400.000000 185.000000
v 100.000000 400.000000 15.000000
v -100.000000 360.000000 15.000000
v -100.000000 360.000000 185.000000
v 100.000000 360.000000 185.000000
v 100.000000 360.000000 15.000000
v -100.000000 400.000000 15.000000
v -100.000000 360.000000 15.000000
v -100.000000 360.000000 185.000000
v -100.000000 400.000000 185.000000
v 100.000000 400.000000 185.000000
v 100.000000 360.000000 185.000000
v 100.000000 360.000000 15.000000
v 100.000000 400.000000 15.000000
v -100.000000 400.000000 -15.000000
v -100.000000 0.000000 -15.000000
v -100.000000 400.000000 15.000000
v -100.000000 0.000000 15.000000
v -100.000000 360.000000 15.000000
v 100.000000 360.000000 15.000000
v 100.000000 0.000000 15.000000
v 100.000000 400.000000 15.000000
v 100.000000 0.000000 -15.000000
v 100.000000 400.000000 -15.000000
v -100.000000 400.000000 -15.000000
v -100.000000 0.000000 -15.000000
v 100.000000 0.000000 -15.000000
v 100.000000 400.000000 -15.000000
# 30 vertices

vt 0.000831 0.997750
vt -0.000417 0.502991
vt 0.497914 0.502991
vt 0.496463 0.998166
vt 0.497792 0.001401
vt 0.497792 0.426401
vt -0.002208 0.426401
vt -0.002208 0.001401
vt 0.066101 0.318138
vt 0.733109 0.318138
vt 0.733109 0.475081
vt 0.066101 0.475081
vt 0.003033 0.473789
vt 0.001878 0.320044
vt 0.501878 0.320044
vt 0.503033 0.473789
vt 0.075000 1.000000
vt 0.000000 1.000000
vt 0.075000 0.900000
vt 0.150000 1.000000
vt 0.075000 0.000000
vt 0.150000 0.000000
vt 0.500871 0.171710
vt 0.499710 0.096754
vt 0.999419 0.089007
vt 1.000581 0.163964
vt 0.499786 -0.000497
vt 0.500214 0.901141
vt 0.001683 0.901141
vt 0.001255 -0.000497
vt 0.000230 0.209195
vt 0.000230 0.134230
vt 0.460000 0.134230
vt 0.500000 0.209195
vt 0.000000 0.000000
vt 1.000000 1.000000
vt 0.500000 1.000000
vt 1.000000 0.000000
# 38 texture coordinates

vn 0.000000 1.000000 0.000000
vn 0.000000 -1.000000 0.000000
vn 1.000000 0.000000 0.000000
vn 0.000000 0.000000 1.000000
vn -1.000000 0.000000 0.000000
vn 0.000000 0.000000 -1.000000
# 6 normals

g Base_Floor2_Sparta0
usemtl Base_Floor2
s 1
f 1/1/1 2/2/1 3/3/1
f 1/1/1 3/3/1 4/4/1
# 2 triangles in group

g Base_Pillar1_Sparta0
usemtl Base_Pillar1
s 2
f 8/5/2 7/6/2 6/7/2
f 8/5/2 6/7/2 5/8/2
# 2 triangles in group

g Base_StepsRail_Sparta0
usemtl Base_StepsRail
s 3
f 14/9/3 15/10/3 16/11/3
f 14/9/3 16/11/3 13/12/3
f 12/13/4 11/14/4 14/15/4
f 12/13/4 14/15/4 13/16/4
f 10/9/5 11/10/5 12/11/5
f 10/9/5 12/11/5 9/12/5
# 6 triangles in group

g Base_ExtWall_Sparta0
usemtl Base_ExtWall
s 4
f 19/17/5 17/18/5 21/19/5
f 24/17/3 22/19/3 26/20/3
f 23/21/3 25/22/3 26/20/3
f 23/21/3 26/20/3 22/19/3
f 25/23/2 23/24/2 20/25/2
f 25/23/2 20/25/2 18/26/2
f 23/27/4 22/28/4 21/29/4
f 23/27/4 21/29/4 20/30/4
f 17/31/1 19/32/1 24/33/1
f 17/31/1 24/33/1 26/34/1
f 18/35/5 20/21/5 21/19/5
f 18/35/5 21/19/5 17/18/5
# 12 triangles in group

g Base_IntWall_Sparta0
usemtl Base_IntWall
s 5
f 27/36/6 30/37/6 29/27/6
f 27/36/6 29/27/6 28/38/6
# 2 triangles in group

# 24 triangles total

