# Wavefront OBJ exported by MilkShape 3D

mtllib SH3D_Sparta_BalcWall5.mtl

v -200.000000 400.000000 185.000000
v -200.000000 400.000000 15.000000
v -15.000000 400.000000 15.000000
v -185.000000 400.000000 185.000000
v -185.000000 400.000000 200.000000
v -15.500000 400.000000 200.000000
v -185.000000 400.000000 15.000000
v -15.450000 400.000000 185.000000
v -200.000000 360.000000 185.000000
v -200.000000 360.000000 15.000000
v -15.000000 360.000000 15.000000
v -185.000000 360.000000 185.000000
v -185.000000 360.000000 200.000000
v -15.500000 360.000000 200.000000
v -200.000000 400.000000 185.000000
v -200.000000 360.000000 185.000000
v -200.000000 360.000000 15.000000
v -200.000000 400.000000 15.000000
v -185.000000 360.000000 185.000000
v -185.000000 400.000000 185.000000
v -185.000000 400.000000 200.000000
v -185.000000 360.000000 200.000000
v -15.500000 360.000000 200.000000
v -15.500000 400.000000 200.000000
v -200.000000 360.000000 15.000000
v -200.000000 0.000000 15.000000
v -200.000000 400.000000 15.000000
v -200.000000 0.000000 -15.000000
v -200.000000 400.000000 -15.000000
v 15.000000 400.000000 -15.000000
v 15.000000 0.000000 -15.000000
v -15.000000 400.000000 15.000000
v -15.000000 0.000000 15.000000
v -15.000000 360.000000 15.000000
v -15.500000 360.000000 200.000000
v -15.500000 0.000000 200.000000
v -15.500000 400.000000 200.000000
v 15.000000 0.000000 200.000000
v 15.000000 400.000000 200.000000
v -185.000000 400.000000 15.000000
v -15.450000 400.000000 185.000000
v -200.000000 0.000000 -15.000000
v -200.000000 400.000000 -15.000000
v 15.000000 400.000000 -15.000000
v 15.000000 0.000000 -15.000000
v 15.000000 0.000000 200.000000
v 15.000000 400.000000 200.000000
# 47 vertices

vt 0.956463 0.504442
vt 0.955911 1.000323
vt 0.498137 1.000861
vt 0.948727 0.499415
vt 0.949326 0.999133
vt 1.000407 0.999133
vt 0.999808 0.499415
vt 0.998950 0.504442
vt 0.998398 1.000181
vt 0.498689 0.503705
vt -0.002208 0.000391
vt 0.497792 0.000391
vt 0.497792 0.427910
vt 0.997792 0.426401
vt 0.497792 0.426401
vt 0.497792 0.001401
vt 0.997792 0.001401
vt 0.000906 0.318452
vt 0.658109 0.318452
vt 0.658109 0.473125
vt 0.000906 0.473125
vt 0.425743 0.318728
vt 0.484453 0.318728
vt 0.484453 0.475288
vt 0.425743 0.475288
vt 0.367033 0.475288
vt 0.367033 0.318728
vt 0.500837 1.000000
vt 0.500837 0.900000
vt 0.577087 1.000000
vt 0.652087 0.900000
vt 0.577087 0.000000
vt 0.652087 0.000000
vt 0.652087 1.000000
vt 0.500837 0.000000
vt 1.464516 0.121102
vt 0.586965 0.121102
vt 0.586965 -0.003388
vt 1.342067 -0.001347
vt 0.502092 -0.000497
vt 1.000623 -0.000497
vt 1.001051 0.901141
vt 0.499582 0.901141
vt 1.431067 0.134230
vt 1.043860 0.134230
vt 1.000837 0.134230
vt 1.000837 0.209195
vt 1.500607 0.209195
vt 1.042814 0.134230
vt 1.420607 0.134230
vt 0.623286 0.000000
vt 1.378388 0.000000
vt 1.378388 0.122449
vt 0.500837 0.122449
vt 1.499582 0.901141
vt 1.499154 -0.000497
vt 1.499442 1.000000
vt 0.999442 0.000000
vt 0.499442 0.000000
vt 0.499442 1.000000
# 60 texture coordinates

vn 0.000000 1.000000 0.000000
vn 0.000000 -1.000000 0.000000
vn 0.000000 0.000000 1.000000
vn -1.000000 0.000000 0.000000
vn -0.999996 0.000000 -0.002703
vn 1.000000 0.000000 0.000000
vn 0.000000 0.000000 -1.000000
# 7 normals

g Base_Floor2_Sparta0
usemtl Base_Floor2
s 1
f 4/1/1 8/2/1 3/3/1
f 4/4/1 7/5/1 2/6/1
f 4/4/1 2/6/1 1/7/1
f 5/8/1 6/9/1 8/2/1
f 5/8/1 8/2/1 4/1/1
f 3/3/1 7/10/1 4/1/1
# 6 triangles in group

g Base_Pillar1_Sparta0
usemtl Base_Pillar1
s 2
f 11/11/2 14/12/2 13/13/2
f 11/11/2 13/13/2 12/14/2
f 9/15/2 10/16/2 11/17/2
f 9/15/2 11/17/2 12/14/2
# 4 triangles in group

g Base_StepsRails_Sparta0
usemtl Base_StepsRail
s 3
f 22/18/3 23/19/3 24/20/3
f 22/18/3 24/20/3 21/21/3
f 19/22/4 22/23/4 21/24/4
f 19/22/4 21/24/4 20/25/4
f 15/18/4 18/19/4 17/20/4
f 15/18/4 17/20/4 16/21/4
f 19/22/3 20/25/3 15/26/3
f 19/22/3 15/26/3 16/27/3
# 8 triangles in group

g Base_ExtWall_Sparta0
usemtl Base_ExtWall
s 4
f 37/28/3 35/29/3 39/30/3
f 25/31/4 29/30/4 28/32/4
f 25/31/4 28/32/4 26/33/4
f 29/30/4 25/31/4 27/34/4
f 36/35/3 38/32/3 39/30/3
f 36/35/3 39/30/3 35/29/3
f 31/36/2 38/37/2 36/38/2
f 31/36/2 36/38/2 33/39/2
f 33/40/5 36/41/5 35/42/5
f 33/40/5 35/42/5 34/43/5
f 32/44/1 41/45/1 37/46/1
f 32/44/1 37/46/1 39/47/1
f 32/44/1 39/47/1 30/48/1
f 30/48/1 29/47/1 27/46/1
f 30/48/1 27/46/1 40/49/1
f 30/48/1 40/49/1 32/50/1
f 33/51/2 26/52/2 28/53/2
f 33/51/2 28/53/2 31/54/2
f 34/55/3 25/42/3 26/41/3
f 34/55/3 26/41/3 33/56/3
# 20 triangles in group

g Base_IntWall_Sparta0
usemtl Base_IntWall
s 5
f 44/57/6 47/6/6 46/58/6
f 44/57/6 46/58/6 45/56/6
f 45/59/7 42/58/7 43/6/7
f 45/59/7 43/6/7 44/60/7
# 4 triangles in group

# 42 triangles total

