# Wavefront OBJ exported by MilkShape 3D

mtllib SH3D_Sparta_BalcWall9.mtl

v 15.000000 400.000000 14.995251
v 185.000000 400.000000 14.995251
v 15.000000 400.000000 14.995251
v 184.852814 400.000000 184.847961
v -400.000000 400.000000 184.995148
v -400.000000 400.000000 14.995251
v 185.000000 400.000000 -400.004578
v 15.000000 400.000000 -400.004578
v 15.000000 360.000000 14.995251
v 15.000000 360.000000 14.995251
v 184.852814 360.000000 184.847961
v -400.000000 360.000000 184.995148
v -400.000000 360.000000 14.995251
v 185.000000 360.000000 -400.004578
v 15.000000 360.000000 -400.004578
v 185.000000 400.000000 14.995251
v 184.852814 360.000000 184.847961
v 184.852814 400.000000 184.847961
v -400.000000 400.000000 184.995148
v -400.000000 360.000000 184.995148
v -400.000000 360.000000 14.995251
v -400.000000 400.000000 14.995251
v 185.000000 400.000000 -400.004578
v 185.000000 360.000000 -400.004578
v 15.000000 360.000000 -400.004578
v 15.000000 400.000000 -400.004578
v 15.000000 400.000000 14.995251
v 15.000000 360.000000 14.995251
v -15.000000 0.000000 -15.004749
v -15.000000 400.000000 -15.004749
v 15.000000 0.000000 14.995251
v 15.000000 400.000000 14.995251
v 15.000000 360.000000 14.995251
v -400.000000 360.000000 14.995251
v -400.000000 0.000000 14.995251
v -400.000000 400.000000 14.995251
v -400.000000 0.000000 -15.004749
v -400.000000 400.000000 -15.004749
v 15.000000 360.000000 -400.004578
v 15.000000 0.000000 -400.004578
v 15.000000 400.000000 -400.004578
v -15.000000 0.000000 -400.004578
v -15.000000 400.000000 -400.004578
v -15.000000 0.000000 -15.004749
v -15.000000 400.000000 -15.004749
v -400.000000 0.000000 -15.004749
v -400.000000 400.000000 -15.004749
v -15.000000 0.000000 -400.004578
v -15.000000 400.000000 -400.004578
# 49 vertices

vt 0.998028 0.501558
vt 1.409204 0.000382
vt 1.409586 0.501558
vt -0.000414 0.501558
vt -0.000414 0.000000
vt -0.001293 0.499748
vt -0.001293 0.002432
vt 1.000367 0.000991
vt 1.000367 0.498306
vt 1.000000 0.002795
vt 1.000000 0.392158
vt -0.440000 0.392158
vt 0.001345 0.002795
vt 0.999883 -0.000816
vt 1.450000 0.392158
vt 0.000000 0.392158
vt 0.001531 0.316305
vt 0.401531 0.316305
vt 0.401531 0.471411
vt 0.001531 0.471411
vt 0.642810 0.474682
vt -0.000649 0.474682
vt -0.000649 0.323280
vt 0.642810 0.323280
vt 0.449686 0.471963
vt 0.004473 0.471963
vt 0.004473 0.320983
vt 1.537473 0.320984
vt 1.537473 0.471963
vt 1.539747 0.320664
vt 1.539747 0.472643
vt -0.000289 0.472643
vt -0.000289 0.320664
vt 0.000000 1.000000
vt 0.000000 0.900000
vt 0.075000 1.000000
vt 0.150000 0.900000
vt 0.075000 0.000000
vt 0.150000 0.000000
vt 0.150000 1.000000
vt 0.001683 0.901141
vt 0.998745 0.901141
vt 0.001255 -0.000497
vt 1.998838 0.073514
vt 0.999770 0.134230
vt 1.124712 0.134230
vt 1.873911 0.075451
vt 0.429770 0.209195
vt 0.499770 0.134230
vt 0.991801 -0.001680
vt 0.991801 0.120769
vt 0.114250 0.120769
vt 0.236699 -0.001680
vt 1.000000 0.901141
vt 0.932870 0.209195
vt 0.001233 0.208571
vt 0.000000 0.134230
vt 0.122449 0.000000
vt 1.000000 0.122449
vt 0.244898 0.122449
vt 0.065742 0.209195
vt 0.990094 0.134230
vt 1.000000 0.209195
vt 1.000000 1.000000
# 64 texture coordinates

vn 0.000000 1.000000 0.000000
vn 0.000000 -1.000000 0.000000
vn 0.000000 0.000000 -1.000000
vn -1.000000 0.000000 0.000000
vn 0.999999 -0.001306 0.000252
vn 0.000252 0.000000 1.000000
vn 0.000000 0.000000 0.000000
vn 1.000000 0.000000 0.000000
# 8 normals

g Base_Floor2_Sparta0
usemtl Base_Floor2
s 1
f 1/1/1 4/2/1 2/3/1
f 3/1/1 6/4/1 5/5/1
f 3/1/1 5/5/1 4/2/1
f 3/1/1 4/2/1 1/1/1
f 1/6/1 2/7/1 7/8/1
f 1/6/1 7/8/1 8/9/1
# 6 triangles in group

g Base_Pillar1_Sparta0
usemtl Base_Pillar1
s 2
f 15/10/2 14/11/2 11/12/2
f 15/10/2 11/12/2 9/13/2
f 9/14/2 11/15/2 12/16/2
f 9/14/2 12/16/2 13/5/2
f 9/14/2 13/5/2 10/14/2
# 5 triangles in group

g Base_StepsRail_Sparta0
usemtl Base_StepsRail
s 3
f 24/17/3 25/18/3 26/19/3
f 24/17/3 26/19/3 23/20/3
f 19/21/4 22/22/4 21/23/4
f 19/21/4 21/23/4 20/24/4
f 16/25/5 18/26/5 17/27/5
f 16/25/5 17/27/5 24/28/5
f 16/25/5 24/28/5 23/29/5
f 17/30/6 18/31/6 19/32/6
f 17/30/6 19/32/6 20/33/6
# 9 triangles in group

g Base_ExtWall_Sparta0
usemtl Base_ExtWall
s 4
f 41/34/3 39/35/3 43/36/3
f 34/37/4 38/36/4 37/38/4
f 34/37/4 37/38/4 35/39/4
f 38/36/4 34/37/4 36/40/4
f 28/41/7 33/42/7 31/43/7
f 27/44/7 32/45/7 33/46/7
f 27/44/7 33/46/7 28/47/7
f 30/48/7 32/49/7 27/49/7
f 40/5/3 42/38/3 43/36/3
f 40/5/3 43/36/3 39/35/3
f 42/50/2 40/51/2 31/52/2
f 42/50/2 31/52/2 29/53/2
f 40/14/8 39/54/8 28/41/8
f 40/14/8 28/41/8 31/5/8
f 30/55/1 38/56/1 36/57/1
f 30/55/1 36/57/1 32/45/1
f 28/47/7 33/46/7 32/45/7
f 28/47/7 32/45/7 27/44/7
f 31/58/2 35/8/2 37/59/2
f 31/58/2 37/59/2 29/60/2
f 33/54/6 34/41/6 35/5/6
f 33/54/6 35/5/6 31/14/6
f 30/61/1 27/57/1 41/62/1
f 30/61/1 41/62/1 43/63/1
# 24 triangles in group

g Base_IntWall_Sparta0
usemtl Base_IntWall
s 5
f 44/5/3 46/8/3 47/64/3
f 44/5/3 47/64/3 45/34/3
f 45/64/4 49/34/4 48/5/4
f 45/64/4 48/5/4 44/8/4
# 4 triangles in group

# 48 triangles total

